
<svg width="188px" height="36px" viewBox="0 0 188 36" version="1.1" xmlns="http://www.w3.org/2000/svg" xmlns:xlink="http://www.w3.org/1999/xlink">
    <g id="Page-1" stroke="none" stroke-width="1" fill="none" fill-rule="evenodd">
        <g id="Desktop-HD" transform="translate(-270.000000, -420.000000)">
            <g id="Group-2-Copy-2" transform="translate(270.983003, 421.200000)">
                <g id="Group" transform="translate(0.000000, 0.000000)">
                    <path d="M34.6594408,11.3777778 L34.659,11.3797778 L34.8491193,11.3777778 C41.1300489,11.3777778 46.2403301,16.3138384 46.3984929,22.46189 L46.4022663,22.7555556 C46.4022663,29.0393287 41.2297462,34.1333333 34.8491193,34.1333333 C34.7857666,34.1333333 34.7225329,34.1328311 34.6594221,34.1318306 L34.6594408,34.1333333 L11.5531469,34.1333333 L11.254955,34.1296173 C5.01214164,33.9738552 0,28.9411448 0,22.7555556 C0,16.4717824 5.17252007,11.3777778 11.5531469,11.3777778 L11.5531469,11.3777778 L34.6594408,11.3777778 Z" id="Combined-Shape" stroke="#FFFFFF" stroke-width="0.920906516" fill="#2D82FF"></path>
                    <ellipse id="Oval-Copy-2" stroke="#FFFFFF" stroke-width="0.921170916" fill="#3B83FF" cx="23.1062939" cy="11.3777778" rx="11.5531469" ry="11.3777778"></ellipse>
                    <ellipse id="Oval-Copy" fill="#2D82FF" cx="32.9333662" cy="22.4" rx="11.0651558" ry="11.0222222"></ellipse>
                </g>
                <path d="M66.4276487,26.0723034 C66.6836487,26.0723034 66.9876487,26.0443034 67.3396487,25.9883034 C67.6916487,25.9323034 68.0596487,25.8403034 68.4436487,25.7123034 C68.8276487,25.5843034 69.2076487,25.4163034 69.5836487,25.2083034 C69.9596487,25.0003034 70.2916487,24.7523034 70.5796487,24.4643034 L70.5796487,24.4643034 L68.6596487,22.4003034 C68.3876487,22.7523034 68.0596487,23.0203034 67.6756487,23.2043034 C67.2916487,23.3883034 66.8756487,23.4803034 66.4276487,23.4803034 C65.8996487,23.4803034 65.4276487,23.3843034 65.0116487,23.1923034 C64.5956487,23.0003034 64.2396487,22.7443034 63.9436487,22.4243034 C63.6476487,22.1043034 63.4236487,21.7363034 63.2716487,21.3203034 C63.1196487,20.9043034 63.0436487,20.4723034 63.0436487,20.0243034 C63.0436487,19.5763034 63.1196487,19.1443034 63.2716487,18.7283034 C63.4236487,18.3123034 63.6476487,17.9443034 63.9436487,17.6243034 C64.2396487,17.3043034 64.5956487,17.0483034 65.0116487,16.8563034 C65.4276487,16.6643034 65.8996487,16.5683034 66.4276487,16.5683034 C66.8116487,16.5683034 67.1876487,16.6723034 67.5556487,16.8803034 C67.9236487,17.0883034 68.2756487,17.3683034 68.6116487,17.7203034 L68.6116487,17.7203034 L70.6036487,15.7283034 C70.0436487,15.1203034 69.3916487,14.6763034 68.6476487,14.3963034 C67.9036487,14.1163034 67.1636487,13.9763034 66.4276487,13.9763034 C65.5636487,13.9763034 64.7476487,14.1203034 63.9796487,14.4083034 C63.2116487,14.6963034 62.5476487,15.1043034 61.9876487,15.6323034 C61.4276487,16.1603034 60.9836487,16.7963034 60.6556487,17.5403034 C60.3276487,18.2843034 60.1636487,19.1123034 60.1636487,20.0243034 C60.1636487,20.9363034 60.3276487,21.7643034 60.6556487,22.5083034 C60.9836487,23.2523034 61.4276487,23.8883034 61.9876487,24.4163034 C62.5476487,24.9443034 63.2116487,25.3523034 63.9796487,25.6403034 C64.7476487,25.9283034 65.5636487,26.0723034 66.4276487,26.0723034 Z M75.2356487,25.7843034 L75.2356487,7.64030335 L72.3556487,7.64030335 L72.3556487,25.7843034 L75.2356487,25.7843034 Z M84.2356487,26.0723034 C85.0996487,26.0723034 85.9156487,25.9283034 86.6836487,25.6403034 C87.4516487,25.3523034 88.1156487,24.9443034 88.6756487,24.4163034 C89.2356487,23.8883034 89.6796487,23.2523034 90.0076487,22.5083034 C90.3356487,21.7643034 90.4996487,20.9363034 90.4996487,20.0243034 C90.4996487,19.1123034 90.3356487,18.2843034 90.0076487,17.5403034 C89.6796487,16.7963034 89.2356487,16.1603034 88.6756487,15.6323034 C88.1156487,15.1043034 87.4516487,14.6963034 86.6836487,14.4083034 C85.9156487,14.1203034 85.0996487,13.9763034 84.2356487,13.9763034 C83.3716487,13.9763034 82.5556487,14.1203034 81.7876487,14.4083034 C81.0196487,14.6963034 80.3556487,15.1043034 79.7956487,15.6323034 C79.2356487,16.1603034 78.7916487,16.7963034 78.4636487,17.5403034 C78.1356487,18.2843034 77.9716487,19.1123034 77.9716487,20.0243034 C77.9716487,20.9363034 78.1356487,21.7643034 78.4636487,22.5083034 C78.7916487,23.2523034 79.2356487,23.8883034 79.7956487,24.4163034 C80.3556487,24.9443034 81.0196487,25.3523034 81.7876487,25.6403034 C82.5556487,25.9283034 83.3716487,26.0723034 84.2356487,26.0723034 Z M84.2356487,23.4803034 C83.7076487,23.4803034 83.2356487,23.3843034 82.8196487,23.1923034 C82.4036487,23.0003034 82.0476487,22.7443034 81.7516487,22.4243034 C81.4556487,22.1043034 81.2316487,21.7363034 81.0796487,21.3203034 C80.9276487,20.9043034 80.8516487,20.4723034 80.8516487,20.0243034 C80.8516487,19.5763034 80.9276487,19.1443034 81.0796487,18.7283034 C81.2316487,18.3123034 81.4556487,17.9443034 81.7516487,17.6243034 C82.0476487,17.3043034 82.4036487,17.0483034 82.8196487,16.8563034 C83.2356487,16.6643034 83.7076487,16.5683034 84.2356487,16.5683034 C84.7636487,16.5683034 85.2356487,16.6643034 85.6516487,16.8563034 C86.0676487,17.0483034 86.4236487,17.3043034 86.7196487,17.6243034 C87.0156487,17.9443034 87.2396487,18.3123034 87.3916487,18.7283034 C87.5436487,19.1443034 87.6196487,19.5763034 87.6196487,20.0243034 C87.6196487,20.4723034 87.5436487,20.9043034 87.3916487,21.3203034 C87.2396487,21.7363034 87.0156487,22.1043034 86.7196487,22.4243034 C86.4236487,22.7443034 86.0676487,23.0003034 85.6516487,23.1923034 C85.2356487,23.3843034 84.7636487,23.4803034 84.2356487,23.4803034 Z M97.3876487,26.0723034 C98.3476487,26.0723034 99.1076487,25.8603034 99.6676487,25.4363034 C100.227649,25.0123034 100.643649,24.5123034 100.915649,23.9363034 L100.915649,23.9363034 L100.963649,23.9363034 L100.963649,25.7843034 L103.699649,25.7843034 L103.699649,14.2643034 L100.819649,14.2643034 L100.819649,20.5523034 C100.819649,20.9363034 100.771649,21.3043034 100.675649,21.6563034 C100.579649,22.0083034 100.423649,22.3203034 100.207649,22.5923034 C99.9916487,22.8643034 99.7196487,23.0803034 99.3916487,23.2403034 C99.0636487,23.4003034 98.6596487,23.4803034 98.1796487,23.4803034 C97.6676487,23.4803034 97.2716487,23.3643034 96.9916487,23.1323034 C96.7116487,22.9003034 96.5036487,22.6123034 96.3676487,22.2683034 C96.2316487,21.9243034 96.1476487,21.5563034 96.1156487,21.1643034 C96.0836487,20.7723034 96.0676487,20.4163034 96.0676487,20.0963034 L96.0676487,20.0963034 L96.0676487,14.2643034 L93.1876487,14.2643034 L93.1876487,21.5363034 C93.1876487,22.1283034 93.2596487,22.6963034 93.4036487,23.2403034 C93.5476487,23.7843034 93.7876487,24.2683034 94.1236487,24.6923034 C94.4596487,25.1163034 94.8956487,25.4523034 95.4316487,25.7003034 C95.9676487,25.9483034 96.6196487,26.0723034 97.3876487,26.0723034 Z M112.075649,26.0723034 C112.891649,26.0723034 113.651649,25.9123034 114.355649,25.5923034 C115.059649,25.2723034 115.619649,24.7603034 116.035649,24.0563034 L116.035649,24.0563034 L116.083649,24.0563034 L116.083649,25.7843034 L118.819649,25.7843034 L118.819649,7.64030335 L115.939649,7.64030335 L115.939649,15.7283034 L115.867649,15.7283034 C115.723649,15.5363034 115.539649,15.3403034 115.315649,15.1403034 C115.091649,14.9403034 114.819649,14.7523034 114.499649,14.5763034 C114.179649,14.4003034 113.811649,14.2563034 113.395649,14.1443034 C112.979649,14.0323034 112.499649,13.9763034 111.955649,13.9763034 C111.139649,13.9763034 110.387649,14.1323034 109.699649,14.4443034 C109.011649,14.7563034 108.423649,15.1843034 107.935649,15.7283034 C107.447649,16.2723034 107.067649,16.9123034 106.795649,17.6483034 C106.523649,18.3843034 106.387649,19.1763034 106.387649,20.0243034 C106.387649,20.8723034 106.515649,21.6643034 106.771649,22.4003034 C107.027649,23.1363034 107.403649,23.7763034 107.899649,24.3203034 C108.395649,24.8643034 108.991649,25.2923034 109.687649,25.6043034 C110.383649,25.9163034 111.179649,26.0723034 112.075649,26.0723034 Z M112.651649,23.4803034 C112.123649,23.4803034 111.651649,23.3843034 111.235649,23.1923034 C110.819649,23.0003034 110.463649,22.7443034 110.167649,22.4243034 C109.871649,22.1043034 109.647649,21.7363034 109.495649,21.3203034 C109.343649,20.9043034 109.267649,20.4723034 109.267649,20.0243034 C109.267649,19.5763034 109.343649,19.1443034 109.495649,18.7283034 C109.647649,18.3123034 109.871649,17.9443034 110.167649,17.6243034 C110.463649,17.3043034 110.819649,17.0483034 111.235649,16.8563034 C111.651649,16.6643034 112.123649,16.5683034 112.651649,16.5683034 C113.179649,16.5683034 113.651649,16.6643034 114.067649,16.8563034 C114.483649,17.0483034 114.839649,17.3043034 115.135649,17.6243034 C115.431649,17.9443034 115.655649,18.3123034 115.807649,18.7283034 C115.959649,19.1443034 116.035649,19.5763034 116.035649,20.0243034 C116.035649,20.4723034 115.959649,20.9043034 115.807649,21.3203034 C115.655649,21.7363034 115.431649,22.1043034 115.135649,22.4243034 C114.839649,22.7443034 114.483649,23.0003034 114.067649,23.1923034 C113.651649,23.3843034 113.179649,23.4803034 112.651649,23.4803034 Z M127.771649,26.0723034 C128.027649,26.0723034 128.331649,26.0443034 128.683649,25.9883034 C129.035649,25.9323034 129.403649,25.8403034 129.787649,25.7123034 C130.171649,25.5843034 130.551649,25.4163034 130.927649,25.2083034 C131.303649,25.0003034 131.635649,24.7523034 131.923649,24.4643034 L131.923649,24.4643034 L130.003649,22.4003034 C129.731649,22.7523034 129.403649,23.0203034 129.019649,23.2043034 C128.635649,23.3883034 128.219649,23.4803034 127.771649,23.4803034 C127.243649,23.4803034 126.771649,23.3843034 126.355649,23.1923034 C125.939649,23.0003034 125.583649,22.7443034 125.287649,22.4243034 C124.991649,22.1043034 124.767649,21.7363034 124.615649,21.3203034 C124.463649,20.9043034 124.387649,20.4723034 124.387649,20.0243034 C124.387649,19.5763034 124.463649,19.1443034 124.615649,18.7283034 C124.767649,18.3123034 124.991649,17.9443034 125.287649,17.6243034 C125.583649,17.3043034 125.939649,17.0483034 126.355649,16.8563034 C126.771649,16.6643034 127.243649,16.5683034 127.771649,16.5683034 C128.155649,16.5683034 128.531649,16.6723034 128.899649,16.8803034 C129.267649,17.0883034 129.619649,17.3683034 129.955649,17.7203034 L129.955649,17.7203034 L131.947649,15.7283034 C131.387649,15.1203034 130.735649,14.6763034 129.991649,14.3963034 C129.247649,14.1163034 128.507649,13.9763034 127.771649,13.9763034 C126.907649,13.9763034 126.091649,14.1203034 125.323649,14.4083034 C124.555649,14.6963034 123.891649,15.1043034 123.331649,15.6323034 C122.771649,16.1603034 122.327649,16.7963034 121.999649,17.5403034 C121.671649,18.2843034 121.507649,19.1123034 121.507649,20.0243034 C121.507649,20.9363034 121.671649,21.7643034 121.999649,22.5083034 C122.327649,23.2523034 122.771649,23.8883034 123.331649,24.4163034 C123.891649,24.9443034 124.555649,25.3523034 125.323649,25.6403034 C126.091649,25.9283034 126.907649,26.0723034 127.771649,26.0723034 Z M137.083649,26.0723034 C137.851649,26.0723034 138.555649,25.9243034 139.195649,25.6283034 C139.835649,25.3323034 140.363649,24.8563034 140.779649,24.2003034 L140.779649,24.2003034 L140.851649,24.2003034 L140.851649,25.7843034 L143.443649,25.7843034 L143.443649,19.1603034 C143.443649,18.8883034 143.435649,18.5723034 143.419649,18.2123034 C143.403649,17.8523034 143.351649,17.4803034 143.263649,17.0963034 C143.175649,16.7123034 143.031649,16.3323034 142.831649,15.9563034 C142.631649,15.5803034 142.347649,15.2483034 141.979649,14.9603034 C141.611649,14.6723034 141.147649,14.4363034 140.587649,14.2523034 C140.027649,14.0683034 139.339649,13.9763034 138.523649,13.9763034 C137.611649,13.9763034 136.727649,14.1203034 135.871649,14.4083034 C135.015649,14.6963034 134.267649,15.1683034 133.627649,15.8243034 L133.627649,15.8243034 L135.139649,17.3363034 C135.523649,16.9683034 135.979649,16.6763034 136.507649,16.4603034 C137.035649,16.2443034 137.603649,16.1363034 138.211649,16.1363034 C138.979649,16.1363034 139.611649,16.3163034 140.107649,16.6763034 C140.603649,17.0363034 140.851649,17.5763034 140.851649,18.2963034 L140.851649,18.2963034 L140.851649,18.6083034 L140.131649,18.6083034 C139.651649,18.6083034 139.139649,18.6203034 138.595649,18.6443034 C138.051649,18.6683034 137.511649,18.7243034 136.975649,18.8123034 C136.439649,18.9003034 135.923649,19.0323034 135.427649,19.2083034 C134.931649,19.3843034 134.495649,19.6203034 134.119649,19.9163034 C133.743649,20.2123034 133.443649,20.5803034 133.219649,21.0203034 C132.995649,21.4603034 132.883649,21.9923034 132.883649,22.6163034 C132.883649,23.1923034 133.003649,23.6963034 133.243649,24.1283034 C133.483649,24.5603034 133.799649,24.9203034 134.191649,25.2083034 C134.583649,25.4963034 135.031649,25.7123034 135.535649,25.8563034 C136.039649,26.0003034 136.555649,26.0723034 137.083649,26.0723034 Z M137.779649,23.9123034 C137.539649,23.9123034 137.299649,23.8843034 137.059649,23.8283034 C136.819649,23.7723034 136.603649,23.6803034 136.411649,23.5523034 C136.219649,23.4243034 136.063649,23.2683034 135.943649,23.0843034 C135.823649,22.9003034 135.763649,22.6723034 135.763649,22.4003034 C135.763649,21.9843034 135.915649,21.6603034 136.219649,21.4283034 C136.523649,21.1963034 136.895649,21.0203034 137.335649,20.9003034 C137.775649,20.7803034 138.243649,20.7043034 138.739649,20.6723034 C139.235649,20.6403034 139.683649,20.6243034 140.083649,20.6243034 L140.083649,20.6243034 L140.683649,20.6243034 L140.683649,21.2723034 C140.683649,22.0883034 140.447649,22.7323034 139.975649,23.2043034 C139.503649,23.6763034 138.771649,23.9123034 137.779649,23.9123034 Z M149.299649,25.7843034 L149.299649,19.4963034 C149.299649,19.1123034 149.347649,18.7443034 149.443649,18.3923034 C149.539649,18.0403034 149.695649,17.7283034 149.911649,17.4563034 C150.127649,17.1843034 150.399649,16.9683034 150.727649,16.8083034 C151.055649,16.6483034 151.459649,16.5683034 151.939649,16.5683034 C152.643649,16.5683034 153.147649,16.7803034 153.451649,17.2043034 C153.755649,17.6283034 153.907649,18.2003034 153.907649,18.9203034 L153.907649,18.9203034 L153.907649,25.7843034 L156.787649,25.7843034 L156.787649,19.5443034 C156.787649,19.1763034 156.831649,18.8123034 156.919649,18.4523034 C157.007649,18.0923034 157.151649,17.7723034 157.351649,17.4923034 C157.551649,17.2123034 157.807649,16.9883034 158.119649,16.8203034 C158.431649,16.6523034 158.811649,16.5683034 159.259649,16.5683034 C159.691649,16.5683034 160.043649,16.6403034 160.315649,16.7843034 C160.587649,16.9283034 160.803649,17.1243034 160.963649,17.3723034 C161.123649,17.6203034 161.235649,17.9083034 161.299649,18.2363034 C161.363649,18.5643034 161.395649,18.9043034 161.395649,19.2563034 L161.395649,19.2563034 L161.395649,25.7843034 L164.275649,25.7843034 L164.275649,18.9203034 C164.275649,18.2323034 164.203649,17.5883034 164.059649,16.9883034 C163.915649,16.3883034 163.679649,15.8643034 163.351649,15.4163034 C163.023649,14.9683034 162.595649,14.6163034 162.067649,14.3603034 C161.539649,14.1043034 160.891649,13.9763034 160.123649,13.9763034 C159.259649,13.9763034 158.515649,14.1483034 157.891649,14.4923034 C157.267649,14.8363034 156.747649,15.3763034 156.331649,16.1123034 C155.739649,14.6883034 154.539649,13.9763034 152.731649,13.9763034 C151.771649,13.9763034 151.007649,14.1883034 150.439649,14.6123034 C149.871649,15.0363034 149.459649,15.5203034 149.203649,16.0643034 L149.203649,16.0643034 L149.155649,16.0643034 L149.155649,14.2643034 L146.419649,14.2643034 L146.419649,25.7843034 L149.299649,25.7843034 Z M170.299649,31.2563034 L170.299649,24.3203034 L170.371649,24.3203034 C170.515649,24.5123034 170.699649,24.7083034 170.923649,24.9083034 C171.147649,25.1083034 171.419649,25.2963034 171.739649,25.4723034 C172.059649,25.6483034 172.427649,25.7923034 172.843649,25.9043034 C173.259649,26.0163034 173.739649,26.0723034 174.283649,26.0723034 C175.099649,26.0723034 175.851649,25.9163034 176.539649,25.6043034 C177.227649,25.2923034 177.815649,24.8643034 178.303649,24.3203034 C178.791649,23.7763034 179.171649,23.1363034 179.443649,22.4003034 C179.715649,21.6643034 179.851649,20.8723034 179.851649,20.0243034 C179.851649,19.1763034 179.723649,18.3843034 179.467649,17.6483034 C179.211649,16.9123034 178.835649,16.2723034 178.339649,15.7283034 C177.843649,15.1843034 177.243649,14.7563034 176.539649,14.4443034 C175.835649,14.1323034 175.043649,13.9763034 174.163649,13.9763034 C173.347649,13.9763034 172.587649,14.1363034 171.883649,14.4563034 C171.179649,14.7763034 170.619649,15.2883034 170.203649,15.9923034 L170.203649,15.9923034 L170.155649,15.9923034 L170.155649,14.2643034 L167.419649,14.2643034 L167.419649,31.2563034 L170.299649,31.2563034 Z M173.587649,23.4803034 C173.059649,23.4803034 172.587649,23.3843034 172.171649,23.1923034 C171.755649,23.0003034 171.399649,22.7443034 171.103649,22.4243034 C170.807649,22.1043034 170.583649,21.7363034 170.431649,21.3203034 C170.279649,20.9043034 170.203649,20.4723034 170.203649,20.0243034 C170.203649,19.5763034 170.279649,19.1443034 170.431649,18.7283034 C170.583649,18.3123034 170.807649,17.9443034 171.103649,17.6243034 C171.399649,17.3043034 171.755649,17.0483034 172.171649,16.8563034 C172.587649,16.6643034 173.059649,16.5683034 173.587649,16.5683034 C174.115649,16.5683034 174.587649,16.6643034 175.003649,16.8563034 C175.419649,17.0483034 175.775649,17.3043034 176.071649,17.6243034 C176.367649,17.9443034 176.591649,18.3123034 176.743649,18.7283034 C176.895649,19.1443034 176.971649,19.5763034 176.971649,20.0243034 C176.971649,20.4723034 176.895649,20.9043034 176.743649,21.3203034 C176.591649,21.7363034 176.367649,22.1043034 176.071649,22.4243034 C175.775649,22.7443034 175.419649,23.0003034 175.003649,23.1923034 C174.587649,23.3843034 174.115649,23.4803034 173.587649,23.4803034 Z" id="cloudcamp" fill="#101727" fill-rule="nonzero"></path>
            </g>
        </g>
    </g>
</svg>